# xmcd
#
# Track frame offsets:
#	150
#	11330
#	23167
#	33712
#	42557
#	53800
#	64040
#	74015
#	85247
#	94817
#	109372
#	119080
#	127377
#	138230
#	148327
#	156775
#	164940
#	175445
#	185157
#	195640
#	206592
#	216772
#	227310
#	236102
#	252347
#	263640
#	275117
#
# Disc length: 3848 seconds
#
# Revision: 2
# Processed by: cddbd v1.5.2PL0 Copyright (c) Steve Scherf et al.
# Submitted via: audiograbber 1.80
#
DISCID=b20f061b
DTITLE=Johnny Preston - Running Bear
DYEAR=1900
DGENRE=
TTITLE0=Charming Billy
TTITLE1=Running Bear
TTITLE2=Cradle Of Love
TTITLE3=Chief Heartbreak
TTITLE4=My Heart Knows
TTITLE5=That´s All I Want
TTITLE6=Just Little Boy Blue
TTITLE7=Leave My Kitten Alone
TTITLE8=Sitting Here Crying
TTITLE9=I Want A Rock And Roll Guitar
TTITLE10=Hearts Of Stone
TTITLE11=Do What You Did
TTITLE12=I Played Around With My Love
TTITLE13=Chosen Few
TTITLE14=Up In The Air
TTITLE15=Kissin´ Tree
TTITLE16=Four Letter Word
TTITLE17=Feel So Good (Feel So Fine)
TTITLE18=She Once Belonged To Me
TTITLE19=A New Baby For Christmas
TTITLE20=City Of Tears
TTITLE21=I´m Startin´ To Go Steady With The Blues
TTITLE22=Dream
TTITLE23=Madre De Dios (Mother Of God)
TTITLE24=You´ll Never Walk Alone
TTITLE25=Danny Boy
TTITLE26=Broken Heart Anonymous
EXTD=
EXTT0=
EXTT1=
EXTT2=
EXTT3=
EXTT4=
EXTT5=
EXTT6=
EXTT7=
EXTT8=
EXTT9=
EXTT10=
EXTT11=
EXTT12=
EXTT13=
EXTT14=
EXTT15=
EXTT16=
EXTT17=
EXTT18=
EXTT19=
EXTT20=
EXTT21=
EXTT22=
EXTT23=
EXTT24=
EXTT25=
EXTT26=
PLAYORDER=
